<svg xmlns="http://www.w3.org/2000/svg" version="1.1" xmlns:xlink="http://www.w3.org/1999/xlink" width="1000" height="1000"><style>
    #light-icon {
      display: inline;
    }
    #dark-icon {
      display: none;
    }

    @media (prefers-color-scheme: dark) {
      #light-icon {
        display: none;
      }
      #dark-icon {
        display: inline;
      }
    }
  </style><g id="light-icon"><svg xmlns="http://www.w3.org/2000/svg" version="1.1" xmlns:xlink="http://www.w3.org/1999/xlink" width="1000" height="1000"><g clip-path="url(#SvgjsClipPath1573)"><rect width="1000" height="1000" fill="#fff9ef"></rect><g transform="matrix(1.7578125,0,0,1.7578125,50,50)"><svg xmlns="http://www.w3.org/2000/svg" version="1.1" xmlns:xlink="http://www.w3.org/1999/xlink" width="512" height="512"><svg id="Layer_1" xmlns="http://www.w3.org/2000/svg" version="1.1" viewBox="0 0 512 512">
  <!-- Generator: Adobe Illustrator 29.5.0, SVG Export Plug-In . SVG Version: 2.1.0 Build 137)  -->
  <defs>
    <style>
      .st0 {
        fill: #c8a87b;
      }

      .st1 {
        fill: #e89e3e;
      }

      .st2 {
        fill: #40a7a6;
      }

      .st3 {
        fill: #c7ac7c;
      }
    </style>
  <clipPath id="SvgjsClipPath1573"><rect width="1000" height="1000" x="0" y="0" rx="250" ry="250"></rect></clipPath></defs>
  <path class="st3" d="M221.8,201.4v2.6-34.2l-16.5,4.6v150.3h31.5c0,.1-14.2-11.1-14.8-17.9v-105.5Z"></path>
  <g>
    <path class="st3" d="M245.5,143c-.8-3.6-23.3-11.3-23.6-11.4-44.5-11-79.2,10-101.6,47.5-20.9,35-32.2,78.2-44.5,116.9L24.7,146.5H5l59.6,177c.5,2,6.2,2,7,.9,8.3-26.7,16.1-53.6,25.7-79.9,6.5-17.7,13.9-37,24-53,26.9-42.3,74.5-67.5,124.2-48.5Z"></path>
    <path class="st2" d="M315,205.1c13.1-4.8,26.1-4.7,39.8-3.5.1,0-1.4-2.4-1.7-2.6-10.2-8.5-27.1-9.1-39.4-5.7-4.9,1.4-8.6,3.6-13.1,5.7,6-10,14.7-18.5,24.2-25.2,5-3.5,10.9-5.8,15.1-9.8-17.4-1.4-31.4,6.4-42.4,19.2-1.5,1.7-2.2,4.1-3.9,5.3,1.1-12,1.9-33.9-3.5-44.8-.5-1-1.6-.5-1.7-.6-6.4,13.3-5.6,29.2-5.3,43.7-11.4-13.8-26.7-24.3-45.5-22.7,5.5,4.5,12,7.4,17.8,11.5,9,6.4,17,14.1,21.6,24.3-16-10.8-39.2-12.6-54.2.9-.3.8-.4,1.2-.2,1.4.3.2,11.1-1.5,15.5-1.5,2.4,0,7.9.7,10.4,1.1,7.7,1.1,14.5,3.8,21.5,6.9l-16.5,8.4c-12.4,9.1-20.3,24.2-20.2,39.7l10-15.7c30.6-35.8,79-26.9,99,14.7.6,1.2-.6,2.4,2,1.9-.4-23.7-13.8-40.6-36.3-47.2-1-.3-2.7-.3-1.3-1.8.3-.3,7.1-3.1,8.3-3.5Z"></path>
    <path class="st1" d="M325.1,274.2c1.3-27.8-29.9-45.8-54.2-32.8-5.8,3.1-13,10.6-15.7,16.6-1.2,2.7-5.4,15.2-2.2,16.2h72.1Z"></path>
    <path class="st2" d="M341.2,282h-104c-3.6.3-2.8.9-2.1,3.5,1.1,4.4,9.3,19.8,13.1,21.4,3.6,1.5,16.4.2,21.4.5,2.7.2,13,.9,14,2.6,5,8.2-19.6,3.9-20.5,9.3-.6,3.4,14.2,6.1,17.1,6.4,25.2,2.4,58.4-13.6,61.5-41,0-.7.4-2.6-.5-2.6Z"></path>
    <path class="st3" d="M190.4,324.4c.6-1.7-1.2-1.2-1.4-1.6-1-1.8-1.1-2.5-1.2-4.5-1.8-22.4,2-47.7,0-70-3.5-39.6-71.6-34.6-75.1-6.1-1.3,10.3,10.1,20,17.4,11.3,6.8-8.1-3.1-18.8,7.9-27.1,10.9-8.1,29.3-1.5,32.6,11.9,6.7,27.6-33,25.2-48.8,30.4-16.2,5.3-25,19.9-20.1,36.8,8.1,27.7,53.6,26.8,68.2,5.3.9,4.3.2,10.3,4.5,13,2.9,1.8,14.6,3.3,16.1.5ZM170.3,301.7c0,3.2-7.2,12.2-10.2,14.3-21.1,14.4-48-1.6-40.3-27.2,6.5-21.6,36.6-17.2,50.5-31.3v44.2Z"></path>
    <path class="st3" d="M411.4,221.5c-11.5-4.8-24.3,1.1-31.2,10.7l-7,12.2c0-3.1,0-6.3,0-9.4v-11.5c0-.2,0-.4,0-.5,0-.1,0-.3,0-.4v-2.2s0,0,0,0l-9.7,1.8c-2.9.6-5.7,1.1-6.9,1.3v101.4h16.6v-65.2c0-6,6.3-19.9,10.9-24,8.2-7.5,6.5.4,13.1,2.7,8.2,2.9,17.9-3,19.4-11.4.5-2.7-3-4.5-5.2-5.4Z"></path>
    <path class="st3" d="M504.4,244.9c-.9-8-7.8-16.4-14.7-20.3-16.7-9.5-57.3-6.3-59.7,17.7-.8,8.3,4.2,16.3,13.4,14.2,8.6-2,5.1-13.5,5.8-19.5,2.6-21.3,40.5-16.8,39.2,7.6-1.2,22.2-36.7,19.5-51.4,24.8-31.8,11.4-23.7,54.1,9.2,57.3,16.9,1.7,29.9-3.7,41.5-15.7-2.3,14.1,7.4,16.8,19.2,14-1.2-3.1-2.3-4.7-2.7-8.3-2-22.7,2.5-49.4,0-71.7ZM487.7,300c0,4.3-7.5,13.4-11.1,16-22,15.9-50.1-4.5-38.7-29.9,8.8-19.6,37-13.6,49.7-29.4v43.3Z"></path>
  </g>
  <path class="st3" d="M373.2,221.6v23.4s5-10.3,7-12.8-7.9,18-7.9,18l.9-28.6Z"></path>
  <g>
    <path class="st0" d="M196.4,373.6h0c3.2-.5,5.5-2.9,5.5-5.8s-2.4-5.2-5.5-5.8h0c0-.1-9.8-.1-9.8-.1h-2.9v19.9h2.9v-8.3h6l6.1,8.3h3.2l-6.1-8.2c.2,0,.4,0,.6,0ZM186.5,364.7h8.2c2,.3,3.6,1.6,3.6,3.1s-1.5,2.8-3.6,3.1h0s0,0,0,0c-.3,0-.6,0-.9,0s-.6,0-.9,0h-6.5v-6.2Z"></path>
    <path class="st0" d="M307.9,374.2h0c3.2-.5,5.5-2.9,5.5-5.8s-2.4-5.2-5.5-5.8h0c0-.1-9.8-.1-9.8-.1h-2.9v19.9h2.9v-8.3h6l6.1,8.3h3.2l-6.1-8.2c.2,0,.4,0,.6,0ZM298.1,365.2h8.2c2,.3,3.6,1.6,3.6,3.1s-1.5,2.8-3.6,3.1h0s0,0,0,0c-.3,0-.6,0-.9,0s-.6,0-.9,0h-6.5v-6.2Z"></path>
    <rect class="st0" x="320.1" y="362" width="18.1" height="3.3"></rect>
    <rect class="st0" x="327.5" y="364.4" width="3.3" height="18.1"></rect>
    <rect class="st0" x="210.8" y="362" width="3.3" height="19.9"></rect>
    <rect class="st0" x="214.1" y="370.1" width="11" height="2.5"></rect>
    <rect class="st0" x="211" y="379.4" width="17" height="2.5"></rect>
    <rect class="st0" x="210.8" y="362" width="17.2" height="2.5"></rect>
    <path class="st0" d="M252.9,368.2l2.4-1.7s-3-5.1-9.2-5.1-9.5,3.1-9.5,5.7,2.4,6.6,9.3,6.6,9.7,7.1.2,6.6c0,0-7.2.1-7.2-4.2l-2.8.5c0,.7.2,1.7.8,2.7,2.2,3.9,7.9,3.8,9.1,3.8,10,0,9.2-5.9,9.2-5.9-.3-2-1.1-3.1-1.6-3.6-2.1-2.3-6.1-2.6-8.1-2.8-1.4-.1-2.4,0-3.6-.7-.3-.2-2.4-1.3-2.3-2.9,0-1.4,1.8-3,4.4-3.2.8-.1,3.5-.5,6.1,1.2,1.5.9,2.3,2.2,2.7,2.9Z"></path>
    <path class="st0" d="M274.6,362c-6.4,0-11.6,4.8-11.6,10.6s5.2,10.6,11.6,10.6,11.6-4.8,11.6-10.6-5.2-10.6-11.6-10.6ZM274.6,380.3c-4.6,0-8.4-3.4-8.4-7.7s3.8-7.7,8.4-7.7,8.4,3.4,8.4,7.7-3.8,7.7-8.4,7.7Z"></path>
  </g>
</svg></svg></g></g></svg></g><g id="dark-icon"><svg xmlns="http://www.w3.org/2000/svg" version="1.1" xmlns:xlink="http://www.w3.org/1999/xlink" width="1000" height="1000"><g><g transform="matrix(1.953125,0,0,1.953125,0,0)"><svg xmlns="http://www.w3.org/2000/svg" version="1.1" xmlns:xlink="http://www.w3.org/1999/xlink" width="512" height="512"><svg id="Layer_1" xmlns="http://www.w3.org/2000/svg" version="1.1" viewBox="0 0 512 512">
  <!-- Generator: Adobe Illustrator 29.5.0, SVG Export Plug-In . SVG Version: 2.1.0 Build 137)  -->
  <defs>
    <style>
      .st0 {
        fill: #c8a87b;
      }

      .st1 {
        fill: #e89e3e;
      }

      .st2 {
        fill: #40a7a6;
      }

      .st3 {
        fill: #c7ac7c;
      }
    </style>
  </defs>
  <path class="st3" d="M221.8,201.4v2.6-34.2l-16.5,4.6v150.3h31.5c0,.1-14.2-11.1-14.8-17.9v-105.5Z"></path>
  <g>
    <path class="st3" d="M245.5,143c-.8-3.6-23.3-11.3-23.6-11.4-44.5-11-79.2,10-101.6,47.5-20.9,35-32.2,78.2-44.5,116.9L24.7,146.5H5l59.6,177c.5,2,6.2,2,7,.9,8.3-26.7,16.1-53.6,25.7-79.9,6.5-17.7,13.9-37,24-53,26.9-42.3,74.5-67.5,124.2-48.5Z"></path>
    <path class="st2" d="M315,205.1c13.1-4.8,26.1-4.7,39.8-3.5.1,0-1.4-2.4-1.7-2.6-10.2-8.5-27.1-9.1-39.4-5.7-4.9,1.4-8.6,3.6-13.1,5.7,6-10,14.7-18.5,24.2-25.2,5-3.5,10.9-5.8,15.1-9.8-17.4-1.4-31.4,6.4-42.4,19.2-1.5,1.7-2.2,4.1-3.9,5.3,1.1-12,1.9-33.9-3.5-44.8-.5-1-1.6-.5-1.7-.6-6.4,13.3-5.6,29.2-5.3,43.7-11.4-13.8-26.7-24.3-45.5-22.7,5.5,4.5,12,7.4,17.8,11.5,9,6.4,17,14.1,21.6,24.3-16-10.8-39.2-12.6-54.2.9-.3.8-.4,1.2-.2,1.4.3.2,11.1-1.5,15.5-1.5,2.4,0,7.9.7,10.4,1.1,7.7,1.1,14.5,3.8,21.5,6.9l-16.5,8.4c-12.4,9.1-20.3,24.2-20.2,39.7l10-15.7c30.6-35.8,79-26.9,99,14.7.6,1.2-.6,2.4,2,1.9-.4-23.7-13.8-40.6-36.3-47.2-1-.3-2.7-.3-1.3-1.8.3-.3,7.1-3.1,8.3-3.5Z"></path>
    <path class="st1" d="M325.1,274.2c1.3-27.8-29.9-45.8-54.2-32.8-5.8,3.1-13,10.6-15.7,16.6-1.2,2.7-5.4,15.2-2.2,16.2h72.1Z"></path>
    <path class="st2" d="M341.2,282h-104c-3.6.3-2.8.9-2.1,3.5,1.1,4.4,9.3,19.8,13.1,21.4,3.6,1.5,16.4.2,21.4.5,2.7.2,13,.9,14,2.6,5,8.2-19.6,3.9-20.5,9.3-.6,3.4,14.2,6.1,17.1,6.4,25.2,2.4,58.4-13.6,61.5-41,0-.7.4-2.6-.5-2.6Z"></path>
    <path class="st3" d="M190.4,324.4c.6-1.7-1.2-1.2-1.4-1.6-1-1.8-1.1-2.5-1.2-4.5-1.8-22.4,2-47.7,0-70-3.5-39.6-71.6-34.6-75.1-6.1-1.3,10.3,10.1,20,17.4,11.3,6.8-8.1-3.1-18.8,7.9-27.1,10.9-8.1,29.3-1.5,32.6,11.9,6.7,27.6-33,25.2-48.8,30.4-16.2,5.3-25,19.9-20.1,36.8,8.1,27.7,53.6,26.8,68.2,5.3.9,4.3.2,10.3,4.5,13,2.9,1.8,14.6,3.3,16.1.5ZM170.3,301.7c0,3.2-7.2,12.2-10.2,14.3-21.1,14.4-48-1.6-40.3-27.2,6.5-21.6,36.6-17.2,50.5-31.3v44.2Z"></path>
    <path class="st3" d="M411.4,221.5c-11.5-4.8-24.3,1.1-31.2,10.7l-7,12.2c0-3.1,0-6.3,0-9.4v-11.5c0-.2,0-.4,0-.5,0-.1,0-.3,0-.4v-2.2s0,0,0,0l-9.7,1.8c-2.9.6-5.7,1.1-6.9,1.3v101.4h16.6v-65.2c0-6,6.3-19.9,10.9-24,8.2-7.5,6.5.4,13.1,2.7,8.2,2.9,17.9-3,19.4-11.4.5-2.7-3-4.5-5.2-5.4Z"></path>
    <path class="st3" d="M504.4,244.9c-.9-8-7.8-16.4-14.7-20.3-16.7-9.5-57.3-6.3-59.7,17.7-.8,8.3,4.2,16.3,13.4,14.2,8.6-2,5.1-13.5,5.8-19.5,2.6-21.3,40.5-16.8,39.2,7.6-1.2,22.2-36.7,19.5-51.4,24.8-31.8,11.4-23.7,54.1,9.2,57.3,16.9,1.7,29.9-3.7,41.5-15.7-2.3,14.1,7.4,16.8,19.2,14-1.2-3.1-2.3-4.7-2.7-8.3-2-22.7,2.5-49.4,0-71.7ZM487.7,300c0,4.3-7.5,13.4-11.1,16-22,15.9-50.1-4.5-38.7-29.9,8.8-19.6,37-13.6,49.7-29.4v43.3Z"></path>
  </g>
  <path class="st3" d="M373.2,221.6v23.4s5-10.3,7-12.8-7.9,18-7.9,18l.9-28.6Z"></path>
  <g>
    <path class="st0" d="M196.4,373.6h0c3.2-.5,5.5-2.9,5.5-5.8s-2.4-5.2-5.5-5.8h0c0-.1-9.8-.1-9.8-.1h-2.9v19.9h2.9v-8.3h6l6.1,8.3h3.2l-6.1-8.2c.2,0,.4,0,.6,0ZM186.5,364.7h8.2c2,.3,3.6,1.6,3.6,3.1s-1.5,2.8-3.6,3.1h0s0,0,0,0c-.3,0-.6,0-.9,0s-.6,0-.9,0h-6.5v-6.2Z"></path>
    <path class="st0" d="M307.9,374.2h0c3.2-.5,5.5-2.9,5.5-5.8s-2.4-5.2-5.5-5.8h0c0-.1-9.8-.1-9.8-.1h-2.9v19.9h2.9v-8.3h6l6.1,8.3h3.2l-6.1-8.2c.2,0,.4,0,.6,0ZM298.1,365.2h8.2c2,.3,3.6,1.6,3.6,3.1s-1.5,2.8-3.6,3.1h0s0,0,0,0c-.3,0-.6,0-.9,0s-.6,0-.9,0h-6.5v-6.2Z"></path>
    <rect class="st0" x="320.1" y="362" width="18.1" height="3.3"></rect>
    <rect class="st0" x="327.5" y="364.4" width="3.3" height="18.1"></rect>
    <rect class="st0" x="210.8" y="362" width="3.3" height="19.9"></rect>
    <rect class="st0" x="214.1" y="370.1" width="11" height="2.5"></rect>
    <rect class="st0" x="211" y="379.4" width="17" height="2.5"></rect>
    <rect class="st0" x="210.8" y="362" width="17.2" height="2.5"></rect>
    <path class="st0" d="M252.9,368.2l2.4-1.7s-3-5.1-9.2-5.1-9.5,3.1-9.5,5.7,2.4,6.6,9.3,6.6,9.7,7.1.2,6.6c0,0-7.2.1-7.2-4.2l-2.8.5c0,.7.2,1.7.8,2.7,2.2,3.9,7.9,3.8,9.1,3.8,10,0,9.2-5.9,9.2-5.9-.3-2-1.1-3.1-1.6-3.6-2.1-2.3-6.1-2.6-8.1-2.8-1.4-.1-2.4,0-3.6-.7-.3-.2-2.4-1.3-2.3-2.9,0-1.4,1.8-3,4.4-3.2.8-.1,3.5-.5,6.1,1.2,1.5.9,2.3,2.2,2.7,2.9Z"></path>
    <path class="st0" d="M274.6,362c-6.4,0-11.6,4.8-11.6,10.6s5.2,10.6,11.6,10.6,11.6-4.8,11.6-10.6-5.2-10.6-11.6-10.6ZM274.6,380.3c-4.6,0-8.4-3.4-8.4-7.7s3.8-7.7,8.4-7.7,8.4,3.4,8.4,7.7-3.8,7.7-8.4,7.7Z"></path>
  </g>
</svg></svg></g></g></svg></g></svg>